<svg width="194" height="49" viewBox="0 0 194 49" fill="none" xmlns="http://www.w3.org/2000/svg">
<path d="M29.864 23.972C30.176 23.972 30.416 24.116 30.584 24.404C30.776 24.692 30.872 25.088 30.872 25.592C30.872 26.528 30.644 27.272 30.188 27.824C28.844 29.432 27.536 30.56 26.264 31.208C25.016 31.856 23.504 32.18 21.728 32.18C20.48 32.18 19.328 32.024 18.272 31.712C17.216 31.4 15.932 30.932 14.42 30.308C13.052 29.708 11.732 29.216 10.46 28.832C9.236 31.064 7.4 32.18 4.952 32.18C3.608 32.18 2.54 31.88 1.748 31.28C0.932 30.656 0.524 29.864 0.524 28.904C0.524 27.728 1.088 26.756 2.216 25.988C3.344 25.196 4.844 24.8 6.716 24.8H7.184L7.832 14.324C7.976 11.924 8.408 9.944 9.128 8.384C9.848 6.824 10.844 5.492 12.116 4.388C13.22 3.428 14.48 2.708 15.896 2.228C17.312 1.724 18.812 1.472 20.396 1.472C22.988 1.472 24.98 2.144 26.372 3.488C27.764 4.832 28.46 6.584 28.46 8.744C28.46 10.208 28.196 11.396 27.668 12.308C27.14 13.196 26.408 13.64 25.472 13.64C24.8 13.64 24.272 13.484 23.888 13.172C23.504 12.836 23.312 12.368 23.312 11.768C23.312 11.552 23.36 11.156 23.456 10.58C23.6 9.908 23.672 9.308 23.672 8.78C23.672 7.772 23.372 6.98 22.772 6.404C22.196 5.804 21.308 5.504 20.108 5.504C17.996 5.504 16.364 6.2 15.212 7.592C14.06 8.96 13.328 11.12 13.016 14.072L12.188 22.244C12.068 23.396 11.912 24.392 11.72 25.232C13.256 25.496 15.176 25.916 17.48 26.492C18.824 26.828 19.856 27.068 20.576 27.212C21.296 27.356 21.932 27.428 22.484 27.428C23.876 27.428 25.064 27.2 26.048 26.744C27.056 26.264 28.004 25.508 28.892 24.476C29.18 24.14 29.504 23.972 29.864 23.972ZM47.7895 23.972C48.1015 23.972 48.3415 24.116 48.5095 24.404C48.7015 24.692 48.7975 25.088 48.7975 25.592C48.7975 26.552 48.5695 27.296 48.1135 27.824C47.2255 28.904 45.9655 29.9 44.3335 30.812C42.7255 31.724 40.9975 32.18 39.1495 32.18C36.6295 32.18 34.6735 31.496 33.2815 30.128C31.8895 28.76 31.1935 26.888 31.1935 24.512C31.1935 22.856 31.5415 21.32 32.2375 19.904C32.9335 18.464 33.8935 17.324 35.1175 16.484C36.3655 15.644 37.7695 15.224 39.3295 15.224C40.7215 15.224 41.8375 15.644 42.6775 16.484C43.5175 17.3 43.9375 18.416 43.9375 19.832C43.9375 21.488 43.3375 22.916 42.1375 24.116C40.9615 25.292 38.9575 26.228 36.1255 26.924C36.7255 28.028 37.8655 28.58 39.5455 28.58C40.6255 28.58 41.8495 28.208 43.2175 27.464C44.6095 26.696 45.8095 25.7 46.8175 24.476C47.1055 24.14 47.4295 23.972 47.7895 23.972ZM38.7175 18.752C37.8295 18.752 37.0735 19.268 36.4495 20.3C35.8495 21.332 35.5495 22.58 35.5495 24.044V24.116C36.9655 23.78 38.0815 23.276 38.8975 22.604C39.7135 21.932 40.1215 21.152 40.1215 20.264C40.1215 19.808 39.9895 19.448 39.7255 19.184C39.4855 18.896 39.1495 18.752 38.7175 18.752ZM51.0185 32.18C49.5305 32.18 48.3425 31.64 47.4545 30.56C46.5665 29.48 46.1225 28.064 46.1225 26.312C46.1225 24.392 46.5665 22.58 47.4545 20.876C48.3425 19.148 49.5185 17.768 50.9825 16.736C52.4705 15.68 54.0425 15.152 55.6985 15.152C56.2265 15.152 56.5745 15.26 56.7425 15.476C56.9345 15.668 57.0905 16.028 57.2105 16.556C57.7145 16.46 58.2425 16.412 58.7945 16.412C59.9705 16.412 60.5585 16.832 60.5585 17.672C60.5585 18.176 60.3785 19.376 60.0185 21.272C59.4665 24.032 59.1905 25.952 59.1905 27.032C59.1905 27.392 59.2745 27.68 59.4425 27.896C59.6345 28.112 59.8745 28.22 60.1625 28.22C60.6185 28.22 61.1705 27.932 61.8185 27.356C62.4665 26.756 63.3425 25.796 64.4465 24.476C64.7345 24.14 65.0585 23.972 65.4185 23.972C65.7305 23.972 65.9705 24.116 66.1385 24.404C66.3305 24.692 66.4265 25.088 66.4265 25.592C66.4265 26.552 66.1985 27.296 65.7425 27.824C64.7585 29.048 63.7145 30.08 62.6105 30.92C61.5065 31.76 60.4385 32.18 59.4065 32.18C58.6145 32.18 57.8825 31.916 57.2105 31.388C56.5625 30.836 56.0705 30.092 55.7345 29.156C54.4865 31.172 52.9145 32.18 51.0185 32.18ZM52.3145 28.544C52.8425 28.544 53.3465 28.232 53.8265 27.608C54.3065 26.984 54.6545 26.156 54.8705 25.124L56.2025 18.5C55.1945 18.524 54.2585 18.908 53.3945 19.652C52.5545 20.372 51.8825 21.332 51.3785 22.532C50.8745 23.732 50.6225 25.004 50.6225 26.348C50.6225 27.092 50.7665 27.644 51.0545 28.004C51.3665 28.364 51.7865 28.544 52.3145 28.544ZM66.9567 32.18C66.0447 32.18 65.3967 31.7 65.0127 30.74C64.6527 29.78 64.4727 28.244 64.4727 26.132C64.4727 23.012 64.9167 20.048 65.8047 17.24C66.0207 16.544 66.3687 16.04 66.8487 15.728C67.3527 15.392 68.0487 15.224 68.9367 15.224C69.4167 15.224 69.7527 15.284 69.9447 15.404C70.1367 15.524 70.2327 15.752 70.2327 16.088C70.2327 16.472 70.0527 17.336 69.6927 18.68C69.4527 19.64 69.2607 20.48 69.1167 21.2C68.9727 21.92 68.8527 22.808 68.7567 23.864C69.5487 21.8 70.4367 20.12 71.4207 18.824C72.4047 17.528 73.3647 16.604 74.3007 16.052C75.2607 15.5 76.1367 15.224 76.9287 15.224C78.4887 15.224 79.2687 16.004 79.2687 17.564C79.2687 17.876 79.1607 18.632 78.9447 19.832C78.7527 20.792 78.6567 21.392 78.6567 21.632C78.6567 22.472 78.9567 22.892 79.5567 22.892C80.2287 22.892 81.0927 22.364 82.1487 21.308C82.4607 20.996 82.7847 20.84 83.1207 20.84C83.4327 20.84 83.6727 20.984 83.8407 21.272C84.0327 21.536 84.1287 21.896 84.1287 22.352C84.1287 23.24 83.8887 23.936 83.4087 24.44C82.7367 25.136 81.9447 25.736 81.0327 26.24C80.1447 26.72 79.1967 26.96 78.1887 26.96C76.9167 26.96 75.9447 26.636 75.2727 25.988C74.6247 25.34 74.3007 24.464 74.3007 23.36C74.3007 23 74.3367 22.64 74.4087 22.28C74.4567 21.8 74.4807 21.476 74.4807 21.308C74.4807 20.924 74.3487 20.732 74.0847 20.732C73.7247 20.732 73.2447 21.14 72.6447 21.956C72.0687 22.748 71.4927 23.804 70.9167 25.124C70.3407 26.444 69.8727 27.836 69.5127 29.3C69.2487 30.428 68.9367 31.196 68.5767 31.604C68.2407 31.988 67.7007 32.18 66.9567 32.18ZM84.2395 32.18C83.3275 32.18 82.6795 31.7 82.2955 30.74C81.9355 29.78 81.7555 28.244 81.7555 26.132C81.7555 23.012 82.1995 20.048 83.0875 17.24C83.3035 16.544 83.6515 16.04 84.1315 15.728C84.6355 15.392 85.3315 15.224 86.2195 15.224C86.6995 15.224 87.0355 15.284 87.2275 15.404C87.4195 15.524 87.5155 15.752 87.5155 16.088C87.5155 16.472 87.3355 17.336 86.9755 18.68C86.7355 19.64 86.5435 20.48 86.3995 21.2C86.2555 21.92 86.1355 22.808 86.0395 23.864C86.8315 21.8 87.7195 20.12 88.7035 18.824C89.6875 17.528 90.6475 16.604 91.5835 16.052C92.5435 15.5 93.4195 15.224 94.2115 15.224C95.7715 15.224 96.5515 16.004 96.5515 17.564C96.5515 18.5 96.2875 20.192 95.7595 22.64C95.3035 24.728 95.0755 26.108 95.0755 26.78C95.0755 27.74 95.4235 28.22 96.1195 28.22C96.5995 28.22 97.1635 27.932 97.8115 27.356C98.4835 26.756 99.3715 25.796 100.475 24.476C100.763 24.14 101.087 23.972 101.447 23.972C101.759 23.972 101.999 24.116 102.167 24.404C102.359 24.692 102.455 25.088 102.455 25.592C102.455 26.552 102.227 27.296 101.771 27.824C100.739 29.096 99.6235 30.14 98.4235 30.956C97.2475 31.772 95.9035 32.18 94.3915 32.18C93.1675 32.18 92.2435 31.832 91.6195 31.136C90.9955 30.416 90.6835 29.384 90.6835 28.04C90.6835 27.368 90.8515 26.168 91.1875 24.44C91.4995 22.928 91.6555 21.884 91.6555 21.308C91.6555 20.924 91.5235 20.732 91.2595 20.732C90.9475 20.732 90.5035 21.14 89.9275 21.956C89.3755 22.748 88.7995 23.804 88.1995 25.124C87.6235 26.444 87.1555 27.836 86.7955 29.3C86.5315 30.428 86.2195 31.196 85.8595 31.604C85.5235 31.988 84.9835 32.18 84.2395 32.18ZM127.983 23.972C128.295 23.972 128.535 24.116 128.703 24.404C128.895 24.692 128.991 25.088 128.991 25.592C128.991 26.528 128.763 27.272 128.307 27.824C127.131 29.216 125.967 30.296 124.815 31.064C123.663 31.808 122.379 32.18 120.963 32.18C118.827 32.18 117.207 31.544 116.103 30.272C115.023 29 114.147 27.14 113.475 24.692L112.251 20.228L103.755 30.74C103.275 31.34 102.783 31.736 102.279 31.928C101.775 32.096 101.187 32.18 100.515 32.18C99.8428 32.18 99.2788 32.06 98.8228 31.82C98.3908 31.556 98.1748 31.196 98.1748 30.74C98.1748 30.14 98.5228 29.456 99.2188 28.688L110.883 15.404L109.731 11.192C109.179 9.224 108.567 7.844 107.895 7.052C107.223 6.26 106.455 5.864 105.591 5.864C104.319 5.864 102.831 6.788 101.127 8.636C100.839 8.948 100.515 9.104 100.155 9.104C99.7948 9.104 99.4828 8.972 99.2188 8.708C98.9788 8.42 98.8588 8.06 98.8588 7.628C98.8588 6.908 99.2068 6.128 99.9028 5.288C100.887 4.136 101.955 3.212 103.107 2.516C104.259 1.82 105.627 1.472 107.211 1.472C108.915 1.472 110.319 2.012 111.423 3.092C112.527 4.148 113.403 5.864 114.051 8.24L114.771 10.76L121.071 3.092C121.551 2.516 122.043 2.108 122.547 1.868C123.051 1.628 123.663 1.508 124.383 1.508C125.031 1.508 125.535 1.628 125.895 1.868C126.279 2.108 126.471 2.444 126.471 2.876C126.471 3.452 126.147 4.112 125.499 4.856L116.139 15.656L118.191 23C118.551 24.272 118.875 25.244 119.163 25.916C119.451 26.588 119.799 27.092 120.207 27.428C120.639 27.74 121.203 27.896 121.899 27.896C122.643 27.896 123.411 27.632 124.203 27.104C125.019 26.576 125.955 25.7 127.011 24.476C127.299 24.14 127.623 23.972 127.983 23.972ZM146.196 23.972C146.508 23.972 146.748 24.116 146.916 24.404C147.108 24.692 147.204 25.088 147.204 25.592C147.204 26.552 146.976 27.296 146.52 27.824C145.488 29.096 144.372 30.14 143.172 30.956C141.996 31.772 140.652 32.18 139.14 32.18C137.868 32.18 136.836 31.724 136.044 30.812C134.676 31.7 133.248 32.156 131.76 32.18C131.448 36.812 130.74 40.676 129.636 43.772C128.532 46.892 126.912 48.452 124.776 48.452C123.48 48.452 122.52 47.984 121.896 47.048C121.272 46.112 120.96 44.816 120.96 43.16C120.96 40.808 121.5 38.06 122.58 34.916C123.66 31.796 125.328 28.352 127.584 24.584C127.584 21.08 127.56 18.644 127.512 17.276C127.488 16.58 127.764 16.028 128.34 15.62C128.916 15.212 129.636 15.008 130.5 15.008C131.004 15.008 131.364 15.116 131.58 15.332C131.82 15.524 131.952 15.92 131.976 16.52C131.976 17.12 131.988 17.564 132.012 17.852C132.78 16.892 133.536 16.208 134.28 15.8C135.024 15.368 135.816 15.152 136.656 15.152C138 15.152 139.092 15.692 139.932 16.772C140.796 17.852 141.228 19.268 141.228 21.02C141.228 22.292 141.024 23.528 140.616 24.728C140.208 25.928 139.644 27.02 138.924 28.004C139.428 28.148 139.848 28.22 140.184 28.22C140.976 28.22 141.732 27.932 142.452 27.356C143.172 26.78 144.096 25.82 145.224 24.476C145.512 24.14 145.836 23.972 146.196 23.972ZM131.94 28.724C132.804 28.532 133.596 28.064 134.316 27.32C135.06 26.552 135.648 25.616 136.08 24.512C136.512 23.384 136.728 22.208 136.728 20.984C136.728 20.264 136.584 19.724 136.296 19.364C136.008 18.98 135.624 18.788 135.144 18.788C134.28 18.788 133.236 19.7 132.012 21.524C131.988 22.58 131.976 24.128 131.976 26.168C131.976 27.272 131.964 28.124 131.94 28.724ZM125.064 44.924C125.712 44.924 126.252 43.508 126.684 40.676C127.116 37.868 127.392 34.364 127.512 30.164C126.48 32.564 125.664 34.856 125.064 37.04C124.464 39.224 124.164 41.06 124.164 42.548C124.164 43.316 124.26 43.904 124.452 44.312C124.62 44.72 124.824 44.924 125.064 44.924ZM161.26 23.972C161.572 23.972 161.812 24.116 161.98 24.404C162.172 24.692 162.268 25.088 162.268 25.592C162.268 26.552 162.04 27.296 161.584 27.824C160.696 28.904 159.436 29.9 157.804 30.812C156.196 31.724 154.468 32.18 152.62 32.18C150.1 32.18 148.144 31.496 146.752 30.128C145.36 28.76 144.664 26.888 144.664 24.512C144.664 22.856 145.012 21.32 145.708 19.904C146.404 18.464 147.364 17.324 148.588 16.484C149.836 15.644 151.24 15.224 152.8 15.224C154.192 15.224 155.308 15.644 156.148 16.484C156.988 17.3 157.408 18.416 157.408 19.832C157.408 21.488 156.808 22.916 155.608 24.116C154.432 25.292 152.428 26.228 149.596 26.924C150.196 28.028 151.336 28.58 153.016 28.58C154.096 28.58 155.32 28.208 156.688 27.464C158.08 26.696 159.28 25.7 160.288 24.476C160.576 24.14 160.9 23.972 161.26 23.972ZM152.188 18.752C151.3 18.752 150.544 19.268 149.92 20.3C149.32 21.332 149.02 22.58 149.02 24.044V24.116C150.436 23.78 151.552 23.276 152.368 22.604C153.184 21.932 153.592 21.152 153.592 20.264C153.592 19.808 153.46 19.448 153.196 19.184C152.956 18.896 152.62 18.752 152.188 18.752ZM174.781 20.156C175.309 20.156 175.753 20.348 176.113 20.732C176.497 21.092 176.689 21.548 176.689 22.1C176.689 22.412 176.617 22.748 176.473 23.108C176.089 23.996 175.549 24.74 174.853 25.34C174.157 25.94 173.389 26.24 172.549 26.24C171.877 26.24 171.301 26 170.821 25.52C170.365 25.04 170.137 24.392 170.137 23.576C170.137 23.12 170.161 22.628 170.209 22.1C170.257 21.716 170.281 21.452 170.281 21.308C170.281 21.116 170.233 20.972 170.137 20.876C170.065 20.78 169.969 20.732 169.849 20.732C169.513 20.732 169.057 21.14 168.481 21.956C167.905 22.748 167.329 23.804 166.753 25.124C166.177 26.444 165.709 27.836 165.349 29.3C165.085 30.452 164.785 31.22 164.449 31.604C164.113 31.988 163.561 32.18 162.793 32.18C161.881 32.18 161.233 31.7 160.849 30.74C160.489 29.78 160.309 28.244 160.309 26.132C160.309 23.012 160.753 20.048 161.641 17.24C161.857 16.544 162.205 16.04 162.685 15.728C163.189 15.392 163.885 15.224 164.773 15.224C165.253 15.224 165.589 15.284 165.781 15.404C165.973 15.524 166.069 15.752 166.069 16.088C166.069 16.472 165.889 17.336 165.529 18.68C165.289 19.64 165.097 20.48 164.953 21.2C164.809 21.92 164.689 22.808 164.593 23.864C165.385 21.8 166.273 20.12 167.257 18.824C168.241 17.528 169.201 16.604 170.137 16.052C171.073 15.5 171.925 15.224 172.693 15.224C173.389 15.224 173.917 15.428 174.277 15.836C174.661 16.22 174.853 16.796 174.853 17.564C174.853 18.02 174.721 18.884 174.457 20.156H174.781ZM184.901 18.644C184.853 19.844 184.829 20.78 184.829 21.452C184.829 23.18 184.913 24.536 185.081 25.52C185.273 26.48 185.573 27.176 185.981 27.608C186.413 28.016 187.001 28.22 187.745 28.22C188.129 28.22 188.585 28.1 189.113 27.86C189.641 27.62 190.121 27.308 190.553 26.924C190.817 26.684 191.081 26.564 191.345 26.564C191.633 26.564 191.861 26.732 192.029 27.068C192.221 27.38 192.317 27.764 192.317 28.22C192.317 28.676 192.221 29.12 192.029 29.552C191.861 29.984 191.597 30.344 191.237 30.632C189.989 31.664 188.573 32.18 186.989 32.18C184.709 32.18 183.041 31.232 181.985 29.336C180.929 27.416 180.401 24.92 180.401 21.848C180.401 20.792 180.437 19.724 180.509 18.644H179.105C178.385 18.644 177.893 18.512 177.629 18.248C177.389 17.984 177.269 17.564 177.269 16.988C177.269 15.644 177.809 14.972 178.889 14.972H180.941C181.349 12.332 181.973 9.92 182.813 7.736C183.653 5.552 184.661 3.812 185.837 2.516C187.037 1.22 188.321 0.571999 189.689 0.571999C190.697 0.571999 191.489 1.016 192.065 1.904C192.641 2.792 192.929 3.908 192.929 5.252C192.929 8.972 191.369 12.212 188.249 14.972H192.281C192.665 14.972 192.941 15.056 193.109 15.224C193.277 15.392 193.361 15.704 193.361 16.16C193.361 17.816 192.005 18.644 189.293 18.644H184.901ZM188.717 4.028C188.357 4.028 187.949 4.484 187.493 5.396C187.061 6.284 186.641 7.532 186.233 9.14C185.849 10.724 185.525 12.488 185.261 14.432C186.677 13.208 187.733 11.84 188.429 10.328C189.149 8.792 189.509 7.4 189.509 6.152C189.509 4.736 189.245 4.028 188.717 4.028Z" fill="#1A56D6"/>
</svg>
